#!OML:ASF I:\Actors\actors\Patient Classification 1\Patient 1\Session 1\Subject1.ASF
:FULLY-SPECIFIED
:DEGREES
222
root -0.470733 17.5555 7.9641 7.18188 -0.026424 -8.2106
lowerback 1.9037 1.4494 5.29936
upperback -9.29493 2.53022 1.70493
thorax -10.8624 0.863162 -1.40682
lowerneck -15.3769 -1.74483 1.59048
upperneck 26.7162 -2.91836 -0.103518
head 11.1719 -1.17623 -0.717349
rclavicle -8.94531e-015 5.1684e-015
rhumerus -22.7224 63.2244 -88.4218
rradius 68.9044
rwrist -44.1459
rhand 0.566358 -72.2265
rfingers 7.12502
rthumb 26.1327 100.448
lclavicle -8.94531e-015 5.1684e-015
lhumerus -11.9129 -65.4414 76.1849
lradius 72.6872
lwrist 52.0239
lhand -22.9438 10.0798
lfingers 7.12502
lthumb 3.49738 40.0308
rfemur -1.05853 24.697 25.1138
rtibia 2.16974
rfoot -12.534 -26.5171
rtoes 2.82748
lfemur 5.98485 -41.4126 -13.0869
ltibia -4.32647
lfoot -15.2698 49.0746
ltoes 7.00094
223
root -0.469204 17.5572 7.96091 7.09028 -0.351365 -8.02134
lowerback 2.09561 1.49634 4.96391
upperback -9.24653 2.58493 1.76987
thorax -10.9327 0.921027 -1.16264
lowerneck -15.0595 -1.73438 1.56954
upperneck 26.1433 -2.74866 -0.566362
head 10.886 -1.16798 -0.847205
rclavicle -4.87022e-015 1.90833e-014
rhumerus -21.2256 65.6033 -86.2519
rradius 69.8936
rwrist -33.1429
rhand 9.74141 -66.7131
rfingers 7.12502
rthumb 34.881 93.2968
lclavicle -4.87022e-015 1.90833e-014
lhumerus -10.6824 -64.9195 74.6576
lradius 74.2423
lwrist 50.1172
lhand -21.7465 10.3906
lfingers 7.12502
lthumb 4.65352 40.3195
rfemur -1.09839 24.5395 24.8546
rtibia 2.32236
rfoot -12.4143 -26.0897
rtoes 2.12089
lfemur 6.23487 -41.4618 -13.5765
ltibia -4.20303
lfoot -15.7374 49.3038
ltoes 7.40291
224
root -0.467323 17.5631 7.95802 7.23275 -0.511726 -7.78068
lowerback 2.13452 1.40021 4.62701
upperback -9.29574 2.4404 1.84958
thorax -11.0335 0.881581 -0.87556
lowerneck -14.7514 -1.57924 1.66984
upperneck 25.6857 -2.38952 -1.1168
head 10.6491 -1.06773 -1.00375
rclavicle 8.49804e-015 5.76476e-015
rhumerus -16.0481 63.423 -80.6613
rradius 74.5366
rwrist -36.0485
rhand 9.45993 -63.987
rfingers 7.12502
rthumb 34.6139 90.6323
lclavicle 8.49804e-015 5.76476e-015
lhumerus -9.84543 -63.6914 73.1256
lradius 76.7162
lwrist 48.9456
lhand -20.0981 11.1186
lfingers 7.12502
lthumb 6.24509 41.0065
rfemur -1.3817 24.4125 24.4188
rtibia 2.40606
rfoot -12.3844 -25.8287
rtoes 2.17656
lfemur 6.08748 -41.6871 -13.8496
ltibia -4.1047
lfoot -16.1273 49.5884
ltoes 7.80742
225
root -0.464798 17.5689 7.95814 7.50877 -0.556624 -7.75545
lowerback 2.14126 1.24901 4.6349
upperback -9.44642 2.2493 1.90932
thorax -11.2227 0.785299 -0.794569
lowerneck -14.7658 -1.40074 1.86361
upperneck 25.831 -2.06361 -1.56895
head 10.702 -0.953874 -1.15755
rclavicle 1.49089e-016 3.22031e-014
rhumerus -11.6465 59.4428 -76.3328
rradius 79.2145
rwrist -33.7947
rhand 10.0747 -63.4338
rfingers 7.12502
rthumb 35.1972 270.056
lclavicle 1.49089e-016 3.22031e-014
lhumerus -8.94621 -62.0081 71.3315
lradius 79.8811
lwrist 47.8427
lhand -19.1083 10.023
lfingers 7.12502
lthumb 7.20063 39.8805
rfemur -1.75285 24.5122 24.2172
rtibia 2.44419
rfoot -12.4697 -25.8427
rtoes 2.79127
lfemur 5.78757 -42.0348 -13.7149
ltibia -4.12451
lfoot -16.4846 49.9387
ltoes 8.31473
226
root -0.46387 17.5759 7.95748 7.76267 -0.652521 -7.89922
lowerback 2.32848 1.13224 4.85726
upperback -9.64439 2.13322 1.92407
thorax -11.5678 0.69917 -0.892785
lowerneck -14.356 -1.1778 2.6543
upperneck 25.4938 -1.68454 -2.5217
head 10.4851 -0.82162 -1.57237
rclavicle -1.1778e-014 2.24627e-014
rhumerus -5.05044 56.9637 -70.2828
rradius 83.9785
rwrist -30.4875
rhand 12.0926 -62.5763
rfingers 7.12502
rthumb 37.1083 271.387
lclavicle -1.1778e-014 2.24627e-014
lhumerus -7.69541 -59.9759 69.2327
lradius 83.3599
lwrist 45.557
lhand -17.4038 8.97706
lfingers 7.12502
lthumb 8.84573 38.7717
rfemur -2.05731 24.7544 24.2616
rtibia 2.45274
rfoot -12.4623 -25.9548
rtoes 2.92673
lfemur 5.68774 -42.514 -13.4703
ltibia -4.31214
lfoot -16.9299 50.4883
ltoes 8.94054
227
root -0.457997 17.5807 7.95289 8.06152 -0.610105 -8.01841
lowerback 2.52112 0.986274 5.14203
upperback -9.81393 1.98382 1.94127
thorax -11.8874 0.591369 -1.01762
lowerneck -14.0361 -0.970439 3.26567
upperneck 25.1303 -1.33112 -3.29983
head 10.2873 -0.695425 -1.8974
rclavicle 5.06901e-015 -3.00165e-014
rhumerus 1.54968 53.8215 -64.5615
rradius 88.475
rwrist -27.0102
rhand 11.2007 -61.9584
rfingers 7.12502
rthumb 36.2642 271.79
lclavicle 5.06901e-015 -3.00165e-014
lhumerus -6.14317 -57.4149 67.1187
lradius 87.1393
lwrist 41.2664
lhand -17.2946 6.08281
lfingers 7.12502
lthumb 8.95107 35.8729
rfemur -2.37477 24.8862 24.2415
rtibia 2.35592
rfoot -12.336 -26.1207
rtoes 2.86433
lfemur 5.4869 -43.2484 -13.2202
ltibia -4.4554
lfoot -17.3325 51.1568
ltoes 9.4854
228
root -0.446144 17.5805 7.94644 8.47301 -0.288591 -8.02176
lowerback 2.51509 0.775242 5.48931
upperback -9.89403 1.73122 1.93692
thorax -11.9878 0.432358 -1.18301
lowerneck -13.9676 -0.817179 3.45627
upperneck 24.6938 -1.04937 -3.73616
head 10.1214 -0.601589 -2.03967
rclavicle 4.17448e-015 -7.15625e-015
rhumerus 7.76196 49.9344 -59.5974
rradius 92.9149
rwrist -23.1863
rhand 9.20753 -61.0515
rfingers 7.12502
rthumb 34.3743 272.249
lclavicle 4.17448e-015 -7.15625e-015
lhumerus -4.31886 -54.2576 65.1682
lradius 91.308
lwrist 35.2142
lhand -18.3252 4.2655
lfingers 7.12502
lthumb 7.95651 34.0958
rfemur -2.75896 24.9592 24.0272
rtibia 2.1383
rfoot -12.241 -26.4941
rtoes 3.08146
lfemur 4.90183 -44.1362 -12.8841
ltibia -4.4252
lfoot -17.6188 51.7166
ltoes 9.7998
229
root -0.441511 17.5821 7.9337 8.88538 -0.0667312 -8.06183
lowerback 2.54008 0.625466 5.90524
upperback -9.85164 1.55706 1.86804
thorax -11.9605 0.305348 -1.46719
lowerneck -13.5579 -0.635123 3.9466
upperneck 23.3744 -0.742838 -4.43449
head 9.57733 -0.499089 -2.29874
rclavicle 6.31141e-015 -9.34288e-015
rhumerus 12.897 45.1665 -56.2534
rradius 97.2824
rwrist -18.7958
rhand 6.03624 -60.5472
rfingers 7.12502
rthumb 31.3579 272.12
lclavicle 6.31141e-015 -9.34288e-015
lhumerus -2.24353 -50.4986 63.4465
lradius 95.4968
lwrist 27.9383
lhand -20.8528 0.288914
lfingers 7.12502
lthumb 5.51646 30.1971
rfemur -3.21585 25.1962 23.8629
rtibia 2.00649
rfoot -12.1629 -26.9057
rtoes 3.20445
lfemur 4.22732 -44.7944 -12.3838
ltibia -4.38671
lfoot -17.9994 52.1527
ltoes 10.228
230
root -0.44306 17.5873 7.9123 9.28074 0.0423006 -8.14372
lowerback 2.99505 0.563579 6.16238
upperback -9.87288 1.53673 1.8708
thorax -12.2683 0.261926 -1.61017
lowerneck -13.2657 -0.492924 4.36374
upperneck 22.0127 -0.508536 -5.0667
head 9.05305 -0.425853 -2.52892
rclavicle 1.23246e-014 1.59028e-015
rhumerus 16.6852 39.7412 -54.4482
rradius 101.63
rwrist -13.8795
rhand 3.793 -59.6239
rfingers 7.12502
rthumb 29.2181 272.65
lclavicle 1.23246e-014 1.59028e-015
lhumerus -0.598693 -46.4135 62.7469
lradius 100.008
lwrist 21.3085
lhand -23.5768 -2.5331
lfingers 7.12502
lthumb 2.88603 27.4271
rfemur -3.79273 25.4246 23.7305
rtibia 2.03722
rfoot -12.1124 -27.1763
rtoes 3.16681
lfemur 3.50002 -45.1664 -11.727
ltibia -4.40876
lfoot -18.2503 52.4595
ltoes 10.6731
231
root -0.444117 17.5941 7.89058 9.61167 0.259671 -8.14423
lowerback 3.56349 0.537426 6.34241
upperback -9.82246 1.56403 1.84774
thorax -12.5596 0.24834 -1.74699
lowerneck -13.1636 -0.370571 4.64202
upperneck 20.5194 -0.325315 -5.55952
head 8.53058 -0.371339 -2.69121
rclavicle -1.9953e-014 2.48481e-014
rhumerus 19.6194 33.8802 -53.7949
rradius 106.281
rwrist -9.93168
rhand 0.925545 -58.6855
rfingers 7.12502
rthumb 26.4766 273.144
lclavicle -1.9953e-014 2.48481e-014
lhumerus 0.975493 -42.0519 62.7495
lradius 104.679
lwrist 15.6847
lhand -27.003 -5.59676
lfingers 7.12502
lthumb -0.42301 24.3826
rfemur -4.26152 25.5819 23.5406
rtibia 2.04298
rfoot -12.1268 -27.4586
rtoes 3.26949
lfemur 2.81875 -45.6135 -11.2108
ltibia -4.39766
lfoot -18.458 52.7254
ltoes 11.0641
232
root -0.445389 17.6024 7.87134 9.88954 0.596718 -8.06051
lowerback 4.13354 0.469465 6.37959
upperback -9.73185 1.52448 1.87006
thorax -12.8127 0.221056 -1.74595
lowerneck -13.1726 -0.217784 4.77253
upperneck 19.045 -0.105847 -5.94622
head 8.0489 -0.297641 -2.79014
rclavicle 2.09966e-014 -2.54444e-014
rhumerus 22.1336 28.1617 -54.0083
rradius 110.65
rwrist -6.33408
rhand -3.24188 -55.901
rfingers 7.12502
rthumb 22.4818 275.388
lclavicle 2.09966e-014 -2.54444e-014
lhumerus 2.22953 -37.8324 63.4808
lradius 109.501
lwrist 12.1934
lhand -31.3924 -9.36046
lfingers 7.12502
lthumb -4.66202 20.5682
rfemur -4.6003 25.7517 23.2953
rtibia 1.97564
rfoot -12.2116 -27.8527
rtoes 3.70697
lfemur 2.0983 -45.9832 -10.7782
ltibia -4.30553
lfoot -18.3931 52.7964
ltoes 11.1053
233
root -0.446479 17.6124 7.85126 10.1666 1.05745 -7.97825
lowerback 4.68181 0.341928 6.38001
upperback -9.6614 1.40693 1.95837
thorax -13.0855 0.163717 -1.63866
lowerneck -13.1989 -0.0293271 4.89387
upperneck 17.6742 0.156036 -6.33113
head 7.61606 -0.200637 -2.88568
rclavicle -1.67476e-014 0
rhumerus 24.3161 23.2832 -54.7237
rradius 114.731
rwrist -1.13817
rhand -7.94906 -52.8502
rfingers 7.12502
rthumb 17.9579 277.959
lclavicle -1.67476e-014 0
lhumerus 3.17314 -34.0257 64.7863
lradius 114.233
lwrist 10.6841
lhand -37.001 -15.1113
lfingers 7.12502
lthumb -10.0756 14.6275
rfemur -4.96473 25.862 23.0449
rtibia 1.93665
rfoot -12.3714 -28.321
rtoes 4.59172
lfemur 1.0923 -45.7593 -10.1126
ltibia -4.16981
lfoot -17.3525 52.2972
ltoes 10.1146
234
root -0.447202 17.6231 7.83063 10.3928 1.60273 -7.94253
lowerback 5.23176 0.194452 6.38311
upperback -9.58097 1.26744 2.08959
thorax -13.3511 0.0994531 -1.4797
lowerneck -13.1831 0.178651 5.06232
upperneck 16.2732 0.418615 -6.68557
head 7.17337 -0.0930858 -2.97929
rclavicle 1.77664e-014 -2.25621e-014
rhumerus 26.0853 19.263 -55.6499
rradius 118.639
rwrist 3.25923
rhand -13.8462 -49.9485
rfingers 7.12502
rthumb 12.2774 280.432
lclavicle 1.77664e-014 -2.25621e-014
lhumerus 3.9575 -30.5316 66.5196
lradius 118.774
lwrist 9.35848
lhand -42.2917 -21.3085
lfingers 7.12502
lthumb -15.1762 8.11497
rfemur -5.3096 25.9151 22.8803
rtibia 1.98013
rfoot -12.5838 -28.8464
rtoes 5.45388
lfemur -0.0173314 -45.058 -9.32432
ltibia -3.99212
lfoot -15.8794 51.3133
ltoes 8.63394
235
root -0.447916 17.6316 7.81212 10.588 2.11114 -7.91366
lowerback 5.68498 0.0727466 6.34931
upperback -9.4676 1.14669 2.20902
thorax -13.5144 0.0509246 -1.3136
lowerneck -13.3503 0.405469 5.23966
upperneck 15.0967 0.6721 -6.89169
head 6.84079 0.022636 -3.03332
rclavicle -1.40516e-014 -1.38155e-014
rhumerus 27.5784 15.6591 -56.8066
rradius 122.4
rwrist 4.89082
rhand -19.7052 -48.2102
rfingers 7.12502
rthumb 6.62438 281.913
lclavicle -1.40516e-014 -1.38155e-014
lhumerus 4.51628 -27.4964 68.3409
lradius 122.945
lwrist 7.94715
lhand -46.5933 -29.609
lfingers 7.12502
lthumb -19.3163 -0.548334
rfemur -5.64464 25.8948 22.7389
rtibia 2.07589
rfoot -12.7807 -29.2853
rtoes 5.95111
lfemur -0.98891 -44.4929 -8.65584
ltibia -3.80673
lfoot -14.7536 50.4511
ltoes 7.56016
236
root -0.448793 17.636 7.79873 10.7757 2.49418 -7.92442
lowerback 5.92912 -0.0159098 6.34264
upperback -9.36579 1.05204 2.29705
thorax -13.5564 0.0131427 -1.1992
lowerneck -13.5573 0.622127 5.44417
upperneck 14.2522 0.898088 -7.0016
head 6.62258 0.133531 -3.06976
rclavicle -4.39811e-015 2.23633e-014
rhumerus 27.8372 13.697 -58.1941
rradius 125.852
rwrist 7.85546
rhand -26.0311 -45.693
rfingers 7.12502
rthumb 0.515688 284.328
lclavicle -4.39811e-015 2.23633e-014
lhumerus 4.71083 -24.8516 70.2376
lradius 126.339
lwrist 5.53763
lhand -49.7393 -38.5537
lfingers 7.12502
lthumb -22.3389 -9.82514
rfemur -5.95288 25.8378 22.6446
rtibia 2.13401
rfoot -12.8541 -29.5805
rtoes 6.1791
lfemur -1.69916 -44.3399 -8.13792
ltibia -3.68101
lfoot -14.191 50.0558
ltoes 7.017
